<svg width="300" height="66" xmlns="http://www.w3.org/2000/svg" preserveAspectRatio="xMidYMid meet" version="1.0">
 <metadata>Created by potrace 1.10, written by Peter Selinger 2001-2011</metadata>

 <g>
  <title>Layer 1</title>
  <g id="svg_1" fill="#000000" transform="translate(0, 66) scale(0.1, -0.1)">
   <path id="svg_2" d="m2848,643c-80,-4 -94,-11 -55,-28c20,-9 23,-19 27,-100c3,-49 5,-91 5,-92c0,-1 -19,4 -41,12c-88,30 -190,-26 -215,-117c-6,-24 -9,-77 -7,-119c7,-124 58,-181 161,-183c41,-1 52,3 72,27c29,33 37,34 29,4c-5,-24 -5,-24 80,-23c82,1 106,9 69,23c-10,4 -21,11 -25,17c-4,6 -8,140 -8,299c0,158 -3,286 -7,285c-5,-1 -43,-4 -85,-5zm50,-316c2,-252 2,-257 -18,-257c-20,0 -20,6 -20,253c0,140 3,257 7,261c24,23 28,-14 31,-257zm-97,83c18,-10 19,-23 19,-165c0,-142 -2,-157 -20,-175c-29,-29 -76,-26 -97,7c-26,40 -31,218 -8,278c23,61 59,80 106,55zm-156,-184c0,-74 -4,-132 -9,-129c-18,11 -36,75 -36,127c0,52 24,136 39,136c3,0 6,-60 6,-134z"/>
   <path id="svg_3" d="m20,581c0,-6 9,-11 20,-11c35,0 40,-31 40,-269c0,-195 -2,-232 -16,-245c-8,-9 -22,-16 -30,-16c-8,0 -14,-5 -14,-11c0,-19 315,-6 371,15c60,22 124,77 151,130c30,58 36,176 13,246c-21,64 -78,122 -143,146c-58,21 -392,34 -392,15zm345,-35c44,-29 68,-97 73,-207c9,-205 -47,-299 -178,-299c-34,0 -42,4 -50,26c-13,34 -13,445 0,480c10,25 13,26 69,22c33,-2 71,-12 86,-22zm-205,-241c0,-228 -1,-235 -20,-235c-19,0 -20,7 -20,235c0,228 1,235 20,235c19,0 20,-7 20,-235zm332,148c51,-60 51,-216 -2,-283l-19,-25l6,110c3,61 1,134 -4,163c-11,55 -6,63 19,35z"/>
   <path id="svg_4" d="m1024,579c-2,-4 8,-10 23,-14c16,-3 31,-12 35,-18c4,-7 8,-116 8,-244c0,-249 -3,-263 -53,-263c-15,0 -18,-3 -10,-11c16,-16 326,-6 376,12c155,58 135,235 -30,269l-56,12l54,22c119,47 133,169 24,217c-36,16 -71,20 -205,22c-89,1 -164,-1 -166,-4zm264,-15c48,-13 68,-116 37,-189c-15,-37 -19,-40 -77,-50l-38,-6l0,110c0,134 11,153 78,135zm-116,-133c1,-59 2,-165 0,-235c-3,-116 -5,-126 -23,-126c-18,0 -19,10 -19,235c0,225 1,235 19,235c18,0 20,-10 23,-109zm248,28c0,-23 -22,-59 -36,-59c-2,0 -4,28 -4,62c0,60 0,61 20,43c11,-10 20,-31 20,-46zm-104,-164c57,-24 82,-114 51,-188c-18,-42 -35,-55 -83,-63c-66,-10 -74,5 -74,147l0,119l35,0c20,0 51,-7 71,-15zm138,-77c9,-12 16,-32 16,-44c0,-22 -35,-74 -49,-74c-6,0 -7,81 -1,138c1,10 22,-2 34,-20z"/>
   <path id="svg_5" d="m1700,467c-49,-16 -123,-93 -138,-143c-20,-67 -15,-125 16,-185c85,-169 326,-170 414,0c58,112 23,240 -85,308c-48,30 -148,40 -207,20zm168,-46c136,-70 149,-249 26,-334c-138,-96 -318,14 -302,183c12,125 164,208 276,151z"/>
   <path id="svg_6" d="m771,435c-88,-28 -131,-97 -131,-210c0,-115 43,-182 133,-206c76,-20 158,15 193,82c22,43 11,47 -31,10c-83,-73 -175,-16 -175,108l0,51l111,0l112,0l-7,47c-3,26 -13,57 -21,70c-32,49 -114,70 -184,48zm83,-24c10,-10 20,-43 23,-72l5,-54l-61,0c-60,0 -61,1 -61,27c0,51 37,118 65,118c7,0 20,-9 29,-19zm-134,-165c0,-69 4,-91 25,-130c17,-32 20,-46 11,-46c-17,0 -52,39 -65,73c-14,35 -14,127 -1,161c18,50 30,28 30,-58z"/>
   <path id="svg_7" d="m2060,425c0,-6 10,-15 23,-20c22,-10 22,-13 22,-180c0,-167 0,-170 -22,-180c-42,-18 -24,-23 82,-24c61,0 105,4 105,9c0,6 -7,10 -15,10c-26,0 -35,45 -35,168c0,91 4,125 18,152c19,40 63,61 90,44c15,-10 17,-34 20,-182c2,-164 2,-171 -18,-177c-47,-15 -13,-24 85,-24c105,0 124,6 83,24c-22,10 -23,16 -28,170c-7,208 -16,225 -124,225c-48,0 -60,-4 -92,-32l-37,-33l5,31l4,30l-83,0c-49,-1 -83,-5 -83,-11zm128,-106c6,-109 -8,-249 -24,-249c-11,0 -14,28 -14,153c0,85 3,157 7,161c17,17 28,-6 31,-65zm237,-102c0,-120 -2,-142 -15,-142c-13,0 -15,26 -18,160c-2,153 -2,159 15,142c16,-15 18,-37 18,-160z"/>
  </g>
  <ellipse ry="24.99966" rx="3.66662" id="svg_12" cy="36.66662" cx="13.99779" stroke="#000000" fill="#000000"/>
  <ellipse ry="17.3331" rx="2.3333" id="svg_13" cy="34.66665" cx="47.99733" stroke="#000000" fill="#000000"/>
  <ellipse ry="13.49982" rx="2.66663" id="svg_14" cy="34.83331" cx="49.66398" stroke="#000000" fill="#000000"/>
  <ellipse ry="6.99991" rx="2.49997" id="svg_15" cy="33" cx="51.16396" stroke="#000000" fill="#000000"/>
  <ellipse ry="11.33318" rx="2.49997" id="svg_16" cy="43.3332" cx="70.83036" stroke="#000000" fill="#000000"/>
  <ellipse ry="5.33326" rx="3.66662" id="svg_21" cy="56.66635" cx="73.66365" stroke="#000000" fill="#000000"/>
  <ellipse ry="24.99966" rx="25.16633" id="svg_23" cy="38.99992" cx="179.16223" stroke="#000000" fill="#000000"/>
  <rect id="svg_24" height="50.33266" width="6.33325" y="10.33364" x="111.66314" stroke="#000000" fill="#000000"/>
  <rect id="svg_25" height="12.99983" width="4.66661" y="13.66693" x="137.32946" stroke="#000000" fill="#000000"/>
  <rect id="svg_28" height="13.99981" width="5.99992" y="41.66655" x="140.66275" stroke="#000000" fill="#000000"/>
  <rect id="svg_29" height="34.33287" width="4.99993" y="27.33341" x="213.66177" stroke="#000000" fill="#000000"/>
  <rect id="svg_30" height="0" width="0.33333" y="53.66639" x="241.99472" stroke="#000000" fill="#000000"/>
  <rect id="svg_31" height="32.3329" width="4.99993" y="27.00008" x="238.66143" stroke="#000000" fill="#000000"/>
  <rect id="svg_32" height="28.99961" width="5.99992" y="29.00006" x="259.99448" stroke="#000000" fill="#000000"/>
  <rect id="svg_35" height="53.99927" width="5.33326" y="5.66704" x="285.99413" stroke="#000000" fill="#000000"/>
 </g>
</svg>