<svg width="26" height="26" viewBox="0 0 26 26" fill="none" xmlns="http://www.w3.org/2000/svg">
<circle cx="13" cy="13" r="13" fill="#5158F6" fill-opacity="0.15"/>
<g clip-path="url(#clip0_186_3711)">
<path d="M5.23505 14.6666C5.36486 14.6666 5.47009 14.5614 5.47009 14.4315C5.47009 14.3018 5.36486 14.1965 5.23505 14.1965C5.10523 14.1965 5 14.3018 5 14.4315C5 14.5614 5.10523 14.6666 5.23505 14.6666Z" fill="#5158F6"/>
<path d="M8.50311 14.3822C8.63293 14.3822 8.73816 14.277 8.73816 14.1472C8.73816 14.0173 8.63293 13.9121 8.50311 13.9121C8.3733 13.9121 8.26807 14.0173 8.26807 14.1472C8.26807 14.277 8.3733 14.3822 8.50311 14.3822Z" fill="#5158F6"/>
<path d="M9.44647 15.7279C9.57628 15.7279 9.68152 15.6226 9.68152 15.4929C9.68152 15.363 9.57628 15.2578 9.44647 15.2578C9.31666 15.2578 9.21143 15.363 9.21143 15.4929C9.21143 15.6226 9.31666 15.7279 9.44647 15.7279Z" fill="#5158F6"/>
<path d="M12.2331 14.7426C12.3629 14.7426 12.4682 14.6373 12.4682 14.5075C12.4682 14.3777 12.3629 14.2725 12.2331 14.2725C12.1033 14.2725 11.998 14.3777 11.998 14.5075C11.998 14.6373 12.1033 14.7426 12.2331 14.7426Z" fill="#5158F6"/>
<path d="M5.4245 7.49768C5.55431 7.49768 5.65955 7.39245 5.65955 7.26263C5.65955 7.13282 5.55431 7.02759 5.4245 7.02759C5.29469 7.02759 5.18945 7.13282 5.18945 7.26263C5.18945 7.39245 5.29469 7.49768 5.4245 7.49768Z" fill="#5158F6"/>
<path d="M5.67107 10.4701C5.87208 10.4701 6.03502 10.3071 6.03502 10.1061C6.03502 9.90513 5.87208 9.74219 5.67107 9.74219C5.47007 9.74219 5.30713 9.90513 5.30713 10.1061C5.30713 10.3071 5.47007 10.4701 5.67107 10.4701Z" fill="#5158F6"/>
<path d="M11.5845 13.882C11.752 13.882 11.8878 13.7462 11.8878 13.5787C11.8878 13.4112 11.752 13.2754 11.5845 13.2754C11.417 13.2754 11.2812 13.4112 11.2812 13.5787C11.2812 13.7462 11.417 13.882 11.5845 13.882Z" fill="#5158F6"/>
<path d="M5.46979 17.578C5.63729 17.578 5.77308 17.4423 5.77308 17.2747C5.77308 17.1073 5.63729 16.9714 5.46979 16.9714C5.30229 16.9714 5.1665 17.1073 5.1665 17.2747C5.1665 17.4423 5.30229 17.578 5.46979 17.578Z" fill="#5158F6"/>
<path d="M7.8053 15.967C7.98954 15.967 8.13891 15.8177 8.13891 15.6334C8.13891 15.4492 7.98954 15.2998 7.8053 15.2998C7.62104 15.2998 7.47168 15.4492 7.47168 15.6334C7.47168 15.8177 7.62104 15.967 7.8053 15.967Z" fill="#5158F6"/>
<path d="M11.3346 18.5186C11.5189 18.5186 11.6682 18.3691 11.6682 18.1849C11.6682 18.0007 11.5189 17.8513 11.3346 17.8513C11.1503 17.8513 11.001 18.0007 11.001 18.1849C11.001 18.3691 11.1503 18.5186 11.3346 18.5186Z" fill="#5158F6"/>
<path d="M10.387 17.1042C10.5335 17.1042 10.6523 16.9854 10.6523 16.8388C10.6523 16.6923 10.5335 16.5735 10.387 16.5735C10.2404 16.5735 10.1216 16.6923 10.1216 16.8388C10.1216 16.9854 10.2404 17.1042 10.387 17.1042Z" fill="#5158F6"/>
<path d="M6.4176 19.0263C6.63744 19.0263 6.81566 18.8481 6.81566 18.6283C6.81566 18.4084 6.63744 18.2302 6.4176 18.2302C6.19775 18.2302 6.01953 18.4084 6.01953 18.6283C6.01953 18.8481 6.19775 19.0263 6.4176 19.0263Z" fill="#5158F6"/>
<path d="M8.00587 9.17337C8.34297 9.17337 8.61624 8.9001 8.61624 8.563C8.61624 8.22591 8.34297 7.95264 8.00587 7.95264C7.66878 7.95264 7.39551 8.22591 7.39551 8.563C7.39551 8.9001 7.66878 9.17337 8.00587 9.17337Z" fill="#5158F6"/>
<path d="M7.05444 7.74023C7.42294 7.74023 7.72167 7.4415 7.72167 7.07299C7.72167 6.70449 7.42294 6.40576 7.05444 6.40576C6.68594 6.40576 6.38721 6.70449 6.38721 7.07299C6.38721 7.4415 6.68594 7.74023 7.05444 7.74023Z" fill="#5158F6"/>
<path d="M7.30097 10.6747C7.61713 10.6747 7.87343 10.4184 7.87343 10.1022C7.87343 9.78608 7.61713 9.52979 7.30097 9.52979C6.98482 9.52979 6.72852 9.78608 6.72852 10.1022C6.72852 10.4184 6.98482 10.6747 7.30097 10.6747Z" fill="#5158F6"/>
<path d="M8.94995 10.4204C9.28286 10.4204 9.55273 10.1505 9.55273 9.81763C9.55273 9.48471 9.28286 9.21484 8.94995 9.21484C8.61704 9.21484 8.34717 9.48471 8.34717 9.81763C8.34717 10.1505 8.61704 10.4204 8.94995 10.4204Z" fill="#5158F6"/>
<path d="M6.61873 12.0204C6.93697 12.0204 7.19497 11.7624 7.19497 11.4442C7.19497 11.1259 6.93697 10.8679 6.61873 10.8679C6.30047 10.8679 6.04248 11.1259 6.04248 11.4442C6.04248 11.7624 6.30047 12.0204 6.61873 12.0204Z" fill="#5158F6"/>
<path d="M8.25283 11.8575C8.55643 11.8575 8.80254 11.6114 8.80254 11.3078C8.80254 11.0042 8.55643 10.7581 8.25283 10.7581C7.94924 10.7581 7.70312 11.0042 7.70312 11.3078C7.70312 11.6114 7.94924 11.8575 8.25283 11.8575Z" fill="#5158F6"/>
<path d="M9.8976 11.6414C10.1614 11.6414 10.3753 11.4275 10.3753 11.1637C10.3753 10.8999 10.1614 10.686 9.8976 10.686C9.63378 10.686 9.41992 10.8999 9.41992 11.1637C9.41992 11.4275 9.63378 11.6414 9.8976 11.6414Z" fill="#5158F6"/>
<path d="M9.20033 13.1351C9.46414 13.1351 9.67801 12.9212 9.67801 12.6574C9.67801 12.3935 9.46414 12.1797 9.20033 12.1797C8.93652 12.1797 8.72266 12.3935 8.72266 12.6574C8.72266 12.9212 8.93652 13.1351 9.20033 13.1351Z" fill="#5158F6"/>
<path d="M7.55482 13.2791C7.81864 13.2791 8.0325 13.0652 8.0325 12.8014C8.0325 12.5376 7.81864 12.3237 7.55482 12.3237C7.29101 12.3237 7.07715 12.5376 7.07715 12.8014C7.07715 13.0652 7.29101 13.2791 7.55482 13.2791Z" fill="#5158F6"/>
<path d="M6.86135 14.8299C7.16285 14.8299 7.40726 14.5854 7.40726 14.284C7.40726 13.9824 7.16285 13.738 6.86135 13.738C6.55985 13.738 6.31543 13.9824 6.31543 14.284C6.31543 14.5854 6.55985 14.8299 6.86135 14.8299Z" fill="#5158F6"/>
<path d="M6.16739 16.2589C6.43539 16.2589 6.65265 16.0416 6.65265 15.7736C6.65265 15.5056 6.43539 15.2883 6.16739 15.2883C5.89939 15.2883 5.68213 15.5056 5.68213 15.7736C5.68213 16.0416 5.89939 16.2589 6.16739 16.2589Z" fill="#5158F6"/>
<path d="M11.0846 15.8836C11.384 15.8836 11.6268 15.6408 11.6268 15.3414C11.6268 15.042 11.384 14.7993 11.0846 14.7993C10.7852 14.7993 10.5425 15.042 10.5425 15.3414C10.5425 15.6408 10.7852 15.8836 11.0846 15.8836Z" fill="#5158F6"/>
<path d="M10.1328 14.5491C10.4343 14.5491 10.6787 14.3047 10.6787 14.0032C10.6787 13.7017 10.4343 13.4573 10.1328 13.4573C9.83133 13.4573 9.58691 13.7017 9.58691 14.0032C9.58691 14.3047 9.83133 14.5491 10.1328 14.5491Z" fill="#5158F6"/>
<path d="M7.10792 17.6768C7.40943 17.6768 7.65384 17.4324 7.65384 17.1309C7.65384 16.8294 7.40943 16.585 7.10792 16.585C6.80642 16.585 6.56201 16.8294 6.56201 17.1309C6.56201 17.4324 6.80642 17.6768 7.10792 17.6768Z" fill="#5158F6"/>
<path d="M5.90613 13.3474C6.13017 13.3474 6.31178 13.1658 6.31178 12.9418C6.31178 12.7178 6.13017 12.5361 5.90613 12.5361C5.6821 12.5361 5.50049 12.7178 5.50049 12.9418C5.50049 13.1658 5.6821 13.3474 5.90613 13.3474Z" fill="#5158F6"/>
<path d="M10.8417 12.9153C11.0657 12.9153 11.2473 12.7337 11.2473 12.5096C11.2473 12.2856 11.0657 12.104 10.8417 12.104C10.6176 12.104 10.436 12.2856 10.436 12.5096C10.436 12.7337 10.6176 12.9153 10.8417 12.9153Z" fill="#5158F6"/>
<path d="M6.36841 9.21118C6.70131 9.21118 6.97119 8.94131 6.97119 8.6084C6.97119 8.27549 6.70131 8.00562 6.36841 8.00562C6.0355 8.00562 5.76562 8.27549 5.76562 8.6084C5.76562 8.94131 6.0355 9.21118 6.36841 9.21118Z" fill="#5158F6"/>
<path d="M12.904 15.8836C13.1302 15.8836 13.3135 15.7003 13.3135 15.4742C13.3135 15.248 13.1302 15.0647 12.904 15.0647C12.6779 15.0647 12.4946 15.248 12.4946 15.4742C12.4946 15.7003 12.6779 15.8836 12.904 15.8836Z" fill="#5158F6"/>
<path d="M20.7063 14.6667C20.836 14.6667 20.9413 14.5614 20.9413 14.4316C20.9413 14.3018 20.836 14.1965 20.7063 14.1965C20.5764 14.1965 20.4712 14.3018 20.4712 14.4316C20.4712 14.5614 20.5764 14.6667 20.7063 14.6667Z" fill="#5158F6"/>
<path d="M17.4348 14.3822C17.5646 14.3822 17.6698 14.277 17.6698 14.1472C17.6698 14.0173 17.5646 13.9121 17.4348 13.9121C17.3049 13.9121 17.1997 14.0173 17.1997 14.1472C17.1997 14.277 17.3049 14.3822 17.4348 14.3822Z" fill="#5158F6"/>
<path d="M16.4948 15.7279C16.6246 15.7279 16.7298 15.6226 16.7298 15.4929C16.7298 15.363 16.6246 15.2578 16.4948 15.2578C16.365 15.2578 16.2598 15.363 16.2598 15.4929C16.2598 15.6226 16.365 15.7279 16.4948 15.7279Z" fill="#5158F6"/>
<path d="M13.7081 14.7426C13.838 14.7426 13.9432 14.6373 13.9432 14.5075C13.9432 14.3777 13.838 14.2725 13.7081 14.2725C13.5783 14.2725 13.4731 14.3777 13.4731 14.5075C13.4731 14.6373 13.5783 14.7426 13.7081 14.7426Z" fill="#5158F6"/>
<path d="M20.5168 7.49768C20.6466 7.49768 20.7519 7.39245 20.7519 7.26263C20.7519 7.13282 20.6466 7.02759 20.5168 7.02759C20.387 7.02759 20.2817 7.13282 20.2817 7.26263C20.2817 7.39245 20.387 7.49768 20.5168 7.49768Z" fill="#5158F6"/>
<path d="M20.2702 10.4701C20.4712 10.4701 20.6341 10.3071 20.6341 10.1061C20.6341 9.90513 20.4712 9.74219 20.2702 9.74219C20.0692 9.74219 19.9062 9.90513 19.9062 10.1061C19.9062 10.3071 20.0692 10.4701 20.2702 10.4701Z" fill="#5158F6"/>
<path d="M14.3565 13.882C14.524 13.882 14.6598 13.7462 14.6598 13.5787C14.6598 13.4112 14.524 13.2754 14.3565 13.2754C14.189 13.2754 14.0532 13.4112 14.0532 13.5787C14.0532 13.7462 14.189 13.882 14.3565 13.882Z" fill="#5158F6"/>
<path d="M20.4678 17.578C20.6353 17.578 20.7711 17.4423 20.7711 17.2747C20.7711 17.1073 20.6353 16.9714 20.4678 16.9714C20.3003 16.9714 20.1646 17.1073 20.1646 17.2747C20.1646 17.4423 20.3003 17.578 20.4678 17.578Z" fill="#5158F6"/>
<path d="M18.1319 15.967C18.3162 15.967 18.4656 15.8177 18.4656 15.6334C18.4656 15.4492 18.3162 15.2998 18.1319 15.2998C17.9477 15.2998 17.7983 15.4492 17.7983 15.6334C17.7983 15.8177 17.9477 15.967 18.1319 15.967Z" fill="#5158F6"/>
<path d="M14.6065 18.5186C14.7908 18.5186 14.9402 18.3691 14.9402 18.1849C14.9402 18.0007 14.7908 17.8513 14.6065 17.8513C14.4223 17.8513 14.2729 18.0007 14.2729 18.1849C14.2729 18.3691 14.4223 18.5186 14.6065 18.5186Z" fill="#5158F6"/>
<path d="M15.5505 17.1042C15.6971 17.1042 15.8159 16.9854 15.8159 16.8388C15.8159 16.6923 15.6971 16.5735 15.5505 16.5735C15.4039 16.5735 15.2852 16.6923 15.2852 16.8388C15.2852 16.9854 15.4039 17.1042 15.5505 17.1042Z" fill="#5158F6"/>
<path d="M19.5196 19.0263C19.7395 19.0263 19.9177 18.8481 19.9177 18.6283C19.9177 18.4084 19.7395 18.2302 19.5196 18.2302C19.2998 18.2302 19.1216 18.4084 19.1216 18.6283C19.1216 18.8481 19.2998 19.0263 19.5196 19.0263Z" fill="#5158F6"/>
<path d="M17.9312 9.17337C18.2683 9.17337 18.5415 8.9001 18.5415 8.563C18.5415 8.22591 18.2683 7.95264 17.9312 7.95264C17.5941 7.95264 17.3208 8.22591 17.3208 8.563C17.3208 8.9001 17.5941 9.17337 17.9312 9.17337Z" fill="#5158F6"/>
<path d="M18.8831 7.74023C19.2515 7.74023 19.5503 7.4415 19.5503 7.07299C19.5503 6.70449 19.2515 6.40576 18.8831 6.40576C18.5145 6.40576 18.2158 6.70449 18.2158 7.07299C18.2158 7.4415 18.5145 7.74023 18.8831 7.74023Z" fill="#5158F6"/>
<path d="M18.6364 10.6747C18.9526 10.6747 19.2088 10.4184 19.2088 10.1022C19.2088 9.78608 18.9526 9.52979 18.6364 9.52979C18.3203 9.52979 18.064 9.78608 18.064 10.1022C18.064 10.4184 18.3203 10.6747 18.6364 10.6747Z" fill="#5158F6"/>
<path d="M16.9909 10.4204C17.3239 10.4204 17.5937 10.1505 17.5937 9.81763C17.5937 9.48471 17.3239 9.21484 16.9909 9.21484C16.6581 9.21484 16.3882 9.48471 16.3882 9.81763C16.3882 10.1505 16.6581 10.4204 16.9909 10.4204Z" fill="#5158F6"/>
<path d="M19.3189 12.0204C19.6371 12.0204 19.8951 11.7624 19.8951 11.4442C19.8951 11.1259 19.6371 10.8679 19.3189 10.8679C19.0007 10.8679 18.7427 11.1259 18.7427 11.4442C18.7427 11.7624 19.0007 12.0204 19.3189 12.0204Z" fill="#5158F6"/>
<path d="M17.6884 11.8575C17.992 11.8575 18.2381 11.6114 18.2381 11.3078C18.2381 11.0042 17.992 10.7581 17.6884 10.7581C17.3848 10.7581 17.1387 11.0042 17.1387 11.3078C17.1387 11.6114 17.3848 11.8575 17.6884 11.8575Z" fill="#5158F6"/>
<path d="M16.0431 11.6414C16.3069 11.6414 16.5208 11.4275 16.5208 11.1637C16.5208 10.8999 16.3069 10.686 16.0431 10.686C15.7793 10.686 15.5654 10.8999 15.5654 11.1637C15.5654 11.4275 15.7793 11.6414 16.0431 11.6414Z" fill="#5158F6"/>
<path d="M16.7374 13.1351C17.0012 13.1351 17.2151 12.9212 17.2151 12.6574C17.2151 12.3935 17.0012 12.1797 16.7374 12.1797C16.4736 12.1797 16.2598 12.3935 16.2598 12.6574C16.2598 12.9212 16.4736 13.1351 16.7374 13.1351Z" fill="#5158F6"/>
<path d="M18.3859 13.2791C18.6497 13.2791 18.8636 13.0653 18.8636 12.8014C18.8636 12.5376 18.6497 12.3237 18.3859 12.3237C18.1221 12.3237 17.9082 12.5376 17.9082 12.8014C17.9082 13.0653 18.1221 13.2791 18.3859 13.2791Z" fill="#5158F6"/>
<path d="M19.0762 14.8299C19.3777 14.8299 19.6221 14.5854 19.6221 14.284C19.6221 13.9824 19.3777 13.738 19.0762 13.738C18.7747 13.738 18.5303 13.9824 18.5303 14.284C18.5303 14.5854 18.7747 14.8299 19.0762 14.8299Z" fill="#5158F6"/>
<path d="M19.7699 16.2589C20.0379 16.2589 20.2552 16.0416 20.2552 15.7736C20.2552 15.5056 20.0379 15.2883 19.7699 15.2883C19.5019 15.2883 19.2847 15.5056 19.2847 15.7736C19.2847 16.0416 19.5019 16.2589 19.7699 16.2589Z" fill="#5158F6"/>
<path d="M14.8532 15.8836C15.1526 15.8836 15.3953 15.6408 15.3953 15.3414C15.3953 15.042 15.1526 14.7993 14.8532 14.7993C14.5537 14.7993 14.311 15.042 14.311 15.3414C14.311 15.6408 14.5537 15.8836 14.8532 15.8836Z" fill="#5158F6"/>
<path d="M15.8047 14.5491C16.1062 14.5491 16.3506 14.3047 16.3506 14.0032C16.3506 13.7017 16.1062 13.4573 15.8047 13.4573C15.5032 13.4573 15.2588 13.7017 15.2588 14.0032C15.2588 14.3047 15.5032 14.5491 15.8047 14.5491Z" fill="#5158F6"/>
<path d="M18.8335 17.6768C19.135 17.6768 19.3794 17.4324 19.3794 17.1309C19.3794 16.8294 19.135 16.585 18.8335 16.585C18.532 16.585 18.2876 16.8294 18.2876 17.1309C18.2876 17.4324 18.532 17.6768 18.8335 17.6768Z" fill="#5158F6"/>
<path d="M20.0316 13.3474C20.2556 13.3474 20.4373 13.1658 20.4373 12.9418C20.4373 12.7178 20.2556 12.5361 20.0316 12.5361C19.8076 12.5361 19.626 12.7178 19.626 12.9418C19.626 13.1658 19.8076 13.3474 20.0316 13.3474Z" fill="#5158F6"/>
<path d="M15.0995 12.9153C15.3235 12.9153 15.5051 12.7337 15.5051 12.5096C15.5051 12.2856 15.3235 12.104 15.0995 12.104C14.8754 12.104 14.6938 12.2856 14.6938 12.5096C14.6938 12.7337 14.8754 12.9153 15.0995 12.9153Z" fill="#5158F6"/>
<path d="M19.573 9.21118C19.9059 9.21118 20.1758 8.94131 20.1758 8.6084C20.1758 8.27549 19.9059 8.00562 19.573 8.00562C19.2401 8.00562 18.9702 8.27549 18.9702 8.6084C18.9702 8.94131 19.2401 9.21118 19.573 9.21118Z" fill="#5158F6"/>
<path d="M13.0369 15.8836C13.263 15.8836 13.4463 15.7003 13.4463 15.4742C13.4463 15.248 13.263 15.0647 13.0369 15.0647C12.8108 15.0647 12.6274 15.248 12.6274 15.4742C12.6274 15.7003 12.8108 15.8836 13.0369 15.8836Z" fill="#5158F6"/>
<path d="M12.9689 15.9519C13.2327 15.9519 13.4466 15.7381 13.4466 15.4742C13.4466 15.2104 13.2327 14.9966 12.9689 14.9966C12.705 14.9966 12.4912 15.2104 12.4912 15.4742C12.4912 15.7381 12.705 15.9519 12.9689 15.9519Z" fill="#5158F6"/>
<path d="M12.9689 18.5564C13.2327 18.5564 13.4466 18.3426 13.4466 18.0788C13.4466 17.815 13.2327 17.6011 12.9689 17.6011C12.705 17.6011 12.4912 17.815 12.4912 18.0788C12.4912 18.3426 12.705 18.5564 12.9689 18.5564Z" fill="#5158F6"/>
<path d="M12.0246 17.1726C12.2884 17.1726 12.5022 16.9588 12.5022 16.695C12.5022 16.4312 12.2884 16.2173 12.0246 16.2173C11.7608 16.2173 11.5469 16.4312 11.5469 16.695C11.5469 16.9588 11.7608 17.1726 12.0246 17.1726Z" fill="#5158F6"/>
<path d="M13.9127 17.1726C14.1765 17.1726 14.3904 16.9588 14.3904 16.695C14.3904 16.4312 14.1765 16.2173 13.9127 16.2173C13.6489 16.2173 13.4351 16.4312 13.4351 16.695C13.4351 16.9588 13.6489 17.1726 13.9127 17.1726Z" fill="#5158F6"/>
<path d="M12.275 19.7429C12.3881 19.7429 12.4797 19.6513 12.4797 19.5382C12.4797 19.4251 12.3881 19.3335 12.275 19.3335C12.162 19.3335 12.0703 19.4251 12.0703 19.5382C12.0703 19.6513 12.162 19.7429 12.275 19.7429Z" fill="#5158F6"/>
<path d="M13.6666 19.7429C13.7797 19.7429 13.8713 19.6513 13.8713 19.5382C13.8713 19.4251 13.7797 19.3335 13.6666 19.3335C13.5536 19.3335 13.4619 19.4251 13.4619 19.5382C13.4619 19.6513 13.5536 19.7429 13.6666 19.7429Z" fill="#5158F6"/>
</g>
<defs>
<clipPath id="clip0_186_3711">
<rect width="16" height="13.3529" fill="white" transform="translate(5 6.40576)"/>
</clipPath>
</defs>
</svg>
